<svg xmlns="http://www.w3.org/2000/svg" width="20" height="20" viewBox="0 0 20 20" fill="none">
<path d="M19.5083 17.4462C20.0939 18.0303 20.0939 18.9778 19.5083 19.5619C18.9226 20.146 17.9725 20.146 17.3868 19.5619L10.001 12.1413L2.56275 19.5595C1.97713 20.1435 1.02697 20.1435 0.44128 19.5595C-0.144406 18.9754 -0.144343 18.0278 0.44128 17.4437L7.88205 10.0281L0.439217 2.55379C-0.146406 1.96975 -0.146406 1.02216 0.439217 0.438053C1.02484 -0.146049 1.975 -0.145987 2.56069 0.438053L10.001 7.91481L17.4393 0.49665C18.0249 -0.0873897 18.9751 -0.0873897 19.5608 0.49665C20.1464 1.08069 20.1464 2.02828 19.5608 2.61238L12.12 10.0281L19.5083 17.4462Z" fill="#424242"/>
</svg>