<svg xmlns="http://www.w3.org/2000/svg" width="18" height="18" viewBox="0 0 18 18" fill="none">
<g clipPath="url(#clip0_4045_10999)">
<path d="M10.6875 0C6.8515 2.21022 7.31249 8.4375 7.31249 8.4375C7.31249 8.4375 5.625 7.87499 5.625 5.34376C3.61171 6.51118 2.25 8.75507 2.25 11.25C2.25 14.9779 5.27208 18 9.00001 18C12.7279 18 15.75 14.9779 15.75 11.25C15.75 5.76563 10.6875 4.64062 10.6875 0V0ZM9.59292 15.6742C8.23653 16.0123 6.86274 15.1869 6.52449 13.8305C6.18632 12.4741 7.01173 11.1002 8.3682 10.762C11.6429 9.94555 12.0534 8.10402 12.0534 8.10402C12.0534 8.10402 13.6864 14.6535 9.59292 15.6742Z" fill="#5B414F"/>
</g>
<defs>
<clipPath id="clip0_4045_10999">
<rect width="18" height="18" fill="white"/>
</clipPath>
</defs>
</svg>
