<svg width="41" height="40" viewBox="0 0 41 40" fill="none" xmlns="http://www.w3.org/2000/svg">
<g id="Highlight_05">
<path id="Vector" fill-rule="evenodd" clip-rule="evenodd" d="M27.5394 37.328C31.3588 36.3497 35.3576 35.8562 39.2367 35.4041C40.0722 35.3093 40.8479 35.8382 40.9076 36.5833C41.027 37.3291 40.4298 38.011 39.654 38.1058C35.8943 38.541 32.0155 39.0068 28.3751 39.9486C27.5993 40.1528 26.7635 39.7323 26.5248 39.0089C26.286 38.2861 26.7636 37.5328 27.5394 37.328Z" fill="white"/>
<path id="Vector_2" fill-rule="evenodd" clip-rule="evenodd" d="M15.9627 23.458C22.1096 17.7325 29.0323 12.744 35.0598 6.86498C35.5969 6.31591 36.5517 6.28649 37.1485 6.79907C37.7453 7.31219 37.8048 8.17501 37.208 8.72407C31.1805 14.62 24.2578 19.6248 18.1109 25.3672C17.5141 25.9032 16.5595 25.9108 15.9627 25.3835C15.4256 24.8568 15.3659 23.994 15.9627 23.458Z" fill="white"/>
<path id="Vector_3" fill-rule="evenodd" clip-rule="evenodd" d="M4.44349 1.43573C4.26446 4.71271 4.08577 7.98969 3.90673 11.2672C3.90673 12.0178 3.19024 12.5974 2.35475 12.5609C1.51925 12.5239 0.922813 11.8849 0.922813 11.1338C1.10185 7.85133 1.28053 4.56945 1.45957 1.28756C1.51925 0.536953 2.23551 -0.0388069 3.071 0.00204639C3.84682 0.0428997 4.50317 0.68566 4.44349 1.43573Z" fill="white"/>
</g>
</svg>
