<svg width="19" height="18" viewBox="0 0 19 18" fill="none" xmlns="http://www.w3.org/2000/svg">
<g clipPath="url(#clip0_2193_5992)">
<path d="M16.3221 5.15812C16.699 4.37108 16.6456 3.41762 15.9986 2.7707L15.7293 2.50139C15.0824 1.85447 14.1033 1.75154 13.3419 2.17793C12.8061 2.47802 11.6721 1.85404 11.5881 1.44986C11.4118 0.601056 10.5927 0 9.68378 0L9.221 0.023508C8.15677 0.07758 7.32164 0.956232 7.32164 2.02183C7.358 2.484 6.566 2.826 6.10596 2.52533C5.3164 1.73578 4.03628 1.73578 3.24673 2.52533L3.02529 2.74676C2.34824 3.42385 2.26958 4.45097 2.73603 5.2416C3.056 5.78398 2.74399 6.74399 2.21832 6.87323C1.2618 7.10842 0.5 7.812 0.5 8.84873V9.18342C0.5 10.1016 1.16881 10.7866 2.00077 11.0817C2.86398 11.388 2.7959 12.6542 2.70741 12.8059C2.25594 13.58 2.36188 14.5898 3.02533 15.2532L3.24676 15.4747C3.90686 16.1348 4.89272 16.2117 5.68245 15.7993C6.24801 15.504 7.30404 16.056 7.39162 16.5073C7.56136 17.3818 8.40996 18 9.34351 18H9.63158C10.5468 18 11.3217 17.3994 11.5836 16.5708C11.7549 16.0289 12.584 15.48 13.4089 15.827C14.1936 16.1571 15.1601 16.0678 15.7733 15.4546L15.9747 15.2532C16.7643 14.4637 16.7643 13.1836 15.9747 12.394C15.62 12.072 16.076 11.184 16.4782 11.1784C17.5949 11.1784 18.5 10.2731 18.5 9.15653V8.81039C18.5 7.88062 17.8828 7.05132 17.0141 6.86041C16.43 6.732 16.133 5.553 16.3221 5.15812Z" fill="#CD76A8"/>
<path d="M7.92522 11.7477L5.57906 9.40152C5.29787 9.12033 5.29787 8.66446 5.57906 8.3833C5.86026 8.1021 6.31612 8.1021 6.59728 8.3833L8.43433 10.2203L12.4028 6.25191C12.6839 5.97072 13.1398 5.97072 13.421 6.25191C13.7021 6.53311 13.7022 6.98898 13.421 7.27014L8.94348 11.7477C8.64802 11.9998 8.12005 11.9638 7.92522 11.7477Z" fill="#161616"/>
</g>
<defs>
<clipPath id="clip0_2193_5992">
<rect width="18" height="18" fill="white" transform="translate(0.5)"/>
</clipPath>
</defs>
</svg>
